<svg width="20" height="20" viewBox="0 0 20 20" fill="none" xmlns="http://www.w3.org/2000/svg">
<path fill-rule="evenodd" clip-rule="evenodd" d="M19.1665 0.624146C19.6267 0.624146 19.9998 0.997242 19.9998 1.45748V18.1241C19.9998 18.5844 19.6267 18.9575 19.1665 18.9575C18.7063 18.9575 18.3332 18.5844 18.3332 18.1241V17.4858L12.0832 15.5275V15.6108C12.0887 17.6796 10.4195 19.363 8.35067 19.375H8.33317C6.26954 19.3727 4.59462 17.7052 4.58317 15.6416V13.4825C4.58318 13.3005 4.4651 13.1396 4.2915 13.085L3.20817 12.745C3.03458 12.6904 2.91649 12.5295 2.9165 12.3475V7.38331C2.91639 7.20254 3.03286 7.04232 3.20484 6.98665L18.3332 2.10248V1.45748C18.3332 0.997242 18.7063 0.624146 19.1665 0.624146ZM9.81339 17.0911C10.2022 16.6985 10.4192 16.1675 10.4165 15.615V15.3108C10.4165 15.1288 10.2984 14.9679 10.1248 14.9133L6.7915 13.8683C6.66493 13.8285 6.52696 13.8514 6.41999 13.9299C6.31302 14.0084 6.24983 14.1331 6.24984 14.2658V15.6383C6.25717 16.7837 7.18776 17.7083 8.33317 17.7083H8.34317C8.89571 17.7057 9.42456 17.4836 9.81339 17.0911Z" fill="#895EF7"/>
<path d="M1.66667 6.8741C1.66667 6.41387 1.29357 6.04077 0.833333 6.04077C0.373096 6.04077 0 6.41387 0 6.8741L0.00416667 12.7074C0.00416667 12.9285 0.091964 13.1404 0.248244 13.2967C0.404525 13.453 0.616486 13.5408 0.8375 13.5408H0.833333C1.28587 13.5409 1.65581 13.1798 1.66667 12.7274V6.8741Z" fill="#895EF7"/>
</svg>
