<svg width="20" height="20" viewBox="0 0 20 20" fill="none" xmlns="http://www.w3.org/2000/svg">
<path d="M16.6667 9.57581C16.2064 9.57581 15.8333 9.9489 15.8333 10.4091V17.4925C15.8333 17.9527 15.4602 18.3258 15 18.3258H2.5C2.03976 18.3258 1.66667 17.9527 1.66667 17.4925V3.32581C1.66667 2.86557 2.03976 2.49247 2.5 2.49247H10.8333C11.2936 2.49247 11.6667 2.11938 11.6667 1.65914C11.6667 1.1989 11.2936 0.825806 10.8333 0.825806H2.5C1.11929 0.825806 0 1.94509 0 3.32581V17.4925C0 18.8732 1.11929 19.9925 2.5 19.9925H15C16.3807 19.9925 17.5 18.8732 17.5 17.4925V10.4091C17.5 9.9489 17.1269 9.57581 16.6667 9.57581Z" fill="#4461D7"/>
<path d="M15.6818 2.54242C15.5162 2.38674 15.2581 2.38674 15.0926 2.54242L8.58343 9.05408C8.54342 9.09399 8.51195 9.14163 8.49093 9.19408L7.31093 12.1399C7.24919 12.2947 7.28556 12.4713 7.40343 12.5891C7.52331 12.703 7.69766 12.7386 7.8526 12.6808L10.7984 11.4999C10.8509 11.4789 10.8985 11.4474 10.9384 11.4074L17.4501 4.89992C17.6128 4.73721 17.6128 4.47346 17.4501 4.31075L15.6818 2.54242Z" fill="#4461D7"/>
<path d="M19.5122 0.480807C18.8529 -0.149038 17.8149 -0.149038 17.1556 0.480807L16.2714 1.36414C16.1087 1.52685 16.1087 1.7906 16.2714 1.95331L18.0381 3.72081C18.2008 3.88347 18.4645 3.88347 18.6272 3.72081L19.5114 2.83747C20.162 2.18664 20.162 1.13164 19.5114 0.480807H19.5122Z" fill="#4461D7"/>
</svg>
