<svg width="20" height="20" viewBox="0 0 20 20" fill="none" xmlns="http://www.w3.org/2000/svg">
<path fill-rule="evenodd" clip-rule="evenodd" d="M19.1691 9.39065C18.6924 5.43226 15.9637 2.16292 12.2576 1.10985C10.8124 0.638609 9.26396 0.630816 7.81448 1.08749C4.4932 2.02719 1.91054 4.74078 1.04525 8.19992C0.249389 11.4635 1.1734 14.9208 3.47525 17.2921C4.10423 17.9498 5.08776 18.0685 5.84525 17.578C6.14272 17.3833 6.33841 17.0583 6.37675 16.6953C6.4151 16.3324 6.29191 15.9711 6.04217 15.7141L5.41986 15.0672C5.11957 14.7553 5.11957 14.2498 5.41986 13.9379C5.55864 13.7409 5.77011 13.6128 6.00358 13.5841C6.23704 13.5555 6.47146 13.629 6.65063 13.787C7.49175 14.6596 9.62821 16.8953 10.5458 17.8555L10.5465 17.8563L10.5484 17.8582L10.5494 17.8593C10.8129 18.1351 10.9749 18.3046 10.9752 18.3047C11.5476 18.9057 12.3266 19.2456 13.1406 19.2495C13.6628 19.2503 14.1753 19.104 14.6237 18.8262C17.8173 16.9051 19.6041 13.1959 19.1691 9.39065ZM11.9052 15.4809C11.156 14.6999 11.156 13.4371 11.9052 12.6562C12.6665 11.903 13.8632 11.903 14.6245 12.6562C15.3758 13.4357 15.3761 14.7 14.6252 15.4801C13.8744 16.2601 12.6566 16.2604 11.9052 15.4809ZM13.2652 4.56944C12.4156 4.56944 11.7268 5.28454 11.7268 6.16666C11.7268 7.04878 12.4156 7.76388 13.2652 7.76388C14.1149 7.76388 14.8037 7.04878 14.8037 6.16666C14.8037 5.28454 14.1149 4.56944 13.2652 4.56944ZM14.5729 10.9663C14.2429 10.6237 14.1441 10.1085 14.3227 9.66079C14.5012 9.21311 14.922 8.92121 15.3887 8.92121C15.8554 8.92121 16.2762 9.21311 16.4548 9.66079C16.6333 10.1085 16.5345 10.6237 16.2045 10.9663C15.9875 11.1911 15.6933 11.317 15.3868 11.3162C15.0802 11.3155 14.7866 11.1882 14.5706 10.9623L14.5729 10.9663ZM10.0641 5.92694C10.3021 5.3299 10.1702 4.64278 9.72986 4.1861C9.12122 3.58342 8.16389 3.58342 7.55525 4.1861C7.11493 4.64278 6.98302 5.3299 7.22105 5.92694C7.45909 6.52398 8.02016 6.9133 8.64255 6.9133C9.26495 6.9133 9.82602 6.52398 10.0641 5.92694Z" fill="#FF61C7"/>
</svg>
