<svg width="20" height="20" viewBox="0 0 20 20" fill="none" xmlns="http://www.w3.org/2000/svg">
<path fill-rule="evenodd" clip-rule="evenodd" d="M19.4925 1.30667C19.1737 0.993706 18.7406 0.825046 18.2942 0.84C15.0933 0.935 11.8717 1.56333 10.2475 2.76333C10.1004 2.87196 9.89962 2.87196 9.7525 2.76333C8.12833 1.56333 4.90667 0.935 1.70583 0.84C1.25923 0.824256 0.825835 0.993033 0.5075 1.30667C0.183989 1.62259 0.00110312 2.05532 0 2.5075V14.5908C-0.000219311 15.4972 0.723876 16.2376 1.63 16.2575C6.6025 16.3983 9.16667 17.7725 9.16667 18.3275C9.16667 18.7877 9.53976 19.1608 10 19.1608C10.4602 19.1608 10.8333 18.7877 10.8333 18.3275C10.8333 17.7725 13.3975 16.3983 18.37 16.2558C19.2761 16.2359 20.0002 15.4955 20 14.5892V2.5075C19.9989 2.05532 19.816 1.62259 19.4925 1.30667ZM2.065 14.605C1.84207 14.5952 1.66645 14.4115 1.66667 14.1883L1.65667 2.93833C1.65655 2.82442 1.70307 2.71543 1.7854 2.63672C1.86774 2.558 1.97871 2.51643 2.0925 2.52167C6.76083 2.73417 9.16667 4.04083 9.16667 4.5775V15.4817C9.1666 15.6222 9.09571 15.7532 8.97813 15.8301C8.86055 15.9071 8.71211 15.9195 8.58333 15.8633C6.50059 15.0669 4.29454 14.641 2.065 14.605ZM17.9233 14.605C18.1466 14.5956 18.3227 14.4118 18.3225 14.1883L18.3333 2.94083C18.3335 2.82692 18.2869 2.71793 18.2046 2.63922C18.1223 2.5605 18.0113 2.51893 17.8975 2.52417C13.2383 2.735 10.8333 4.04167 10.8333 4.5775V15.4817C10.8334 15.6222 10.9043 15.7532 11.0219 15.8301C11.1395 15.907 11.2879 15.9195 11.4167 15.8633C13.4956 15.0678 15.6977 14.6419 17.9233 14.605Z" fill="#FF61C7"/>
</svg>
