<?xml version="1.0" ?>
<svg xmlns="http://www.w3.org/2000/svg" xmlns:xlink="http://www.w3.org/1999/xlink"
  preserveAspectRatio="xMidYMid" width="49.015" height="49.995" viewBox="0 0 50 51">
  <defs>
    <style>
      .cls-1 {
        fill: #EEE;
        fill-rule: evenodd;
      }
    </style>
  </defs>
  <path
    d="M50.000,20.000 L50.000,49.000 C50.000,50.105 49.105,51.000 48.000,51.000 L2.000,51.000 C0.895,51.000 -0.000,50.105 -0.000,49.000 L-0.000,20.000 C0.000,20.000 0.001,20.000 0.001,20.000 L8.000,14.561 L8.000,-0.000 L42.000,-0.000 L42.000,14.560 L50.000,20.000 L50.000,20.000 ZM8.000,17.334 L4.001,20.000 L3.949,20.000 L8.000,23.079 L8.000,17.334 ZM40.000,2.000 L10.000,2.000 L10.000,25.000 L10.527,25.000 L25.001,36.000 L39.474,25.000 L40.000,25.000 L40.000,2.000 ZM46.000,20.000 L42.000,17.333 L42.000,23.080 L46.053,20.000 L46.000,20.000 ZM48.000,22.000 L47.369,22.000 L25.001,39.000 L2.633,22.000 L2.000,22.000 L2.000,49.000 L48.000,49.000 L48.000,22.000 ZM14.000,21.000 L36.000,21.000 L36.000,23.000 L14.000,23.000 L14.000,21.000 ZM14.000,14.000 L36.000,14.000 L36.000,16.000 L14.000,16.000 L14.000,14.000 ZM14.000,7.000 L36.000,7.000 L36.000,9.000 L14.000,9.000 L14.000,7.000 Z"
    class="cls-1"></path>
</svg>
