<?xml version="1.0" encoding="UTF-8"?>
<svg width="22px" height="22px" viewBox="0 0 22 22" version="1.1" xmlns="http://www.w3.org/2000/svg" xmlns:xlink="http://www.w3.org/1999/xlink">
    <!-- Generator: Sketch 55.1 (78136) - https://sketchapp.com -->
    <title>Oval</title>
    <desc>Created with Sketch.</desc>
    <g id="Page-1" stroke="none" stroke-width="1" fill="none" fill-rule="evenodd">
        <g id="Oval" fill="#1D1C39" fill-rule="nonzero">
            <path d="M21.0832625,0 L0.916825,0 C0.4101375,0 -0.0003,0.4104375 -0.0003,0.9164375 L-0.0003,21.0835625 C-0.0003,21.5895625 0.4101375,22 0.916825,22 L11.6872,22 L11.6872,13.75 L8.9372,13.75 L8.9372,10.3125 L11.6872,10.3125 L11.6872,7.5625 C11.6872,4.7210625 13.4863875,3.3226875 16.0212,3.3226875 C17.235325,3.3226875 18.27895,3.4134375 18.582825,3.4533125 L18.582825,6.4233125 L16.8248875,6.424 C15.44645,6.424 15.1247,7.0791875 15.1247,8.0403125 L15.1247,10.3125 L18.5622,10.3125 L17.8747,13.75 L15.1247,13.75 L15.1797,22 L21.0832625,22 C21.5892625,22 21.9997,21.5895625 21.9997,21.0835625 L21.9997,0.9164375 C21.9997,0.4104375 21.5892625,0 21.0832625,0" id="Path"></path>
        </g>
    </g>
</svg>
