<svg width="20" height="20" viewBox="0 0 20 20" fill="none" xmlns="http://www.w3.org/2000/svg">
<path fill-rule="evenodd" clip-rule="evenodd" d="M17.6293 7.76162L18.6843 8.13579C19.4731 8.41652 19.9999 9.16317 19.9999 10.0004C19.9999 10.8376 19.4731 11.5842 18.6843 11.865L17.6293 12.2408C17.3241 12.3494 17.0791 12.5823 16.9552 12.8817C16.8313 13.1812 16.8401 13.519 16.9793 13.8116L17.4593 14.8225C17.8181 15.5788 17.6624 16.4791 17.0704 17.0711C16.4785 17.663 15.5782 17.8187 14.8218 17.46L13.811 16.98C13.5184 16.8407 13.1805 16.8319 12.8811 16.9558C12.5817 17.0797 12.3488 17.3247 12.2402 17.63L11.8652 18.685C11.584 19.4735 10.8373 20 10.0002 20C9.16302 20 8.41632 19.4735 8.13517 18.685L7.76017 17.6308C7.65193 17.3252 7.41913 17.0799 7.11961 16.9558C6.8201 16.8317 6.482 16.8405 6.18934 16.98L5.17851 17.46C4.42213 17.8187 3.52185 17.663 2.9299 17.0711C2.33794 16.4791 2.18224 15.5788 2.54101 14.8225L3.02101 13.8116C3.16027 13.519 3.16904 13.1812 3.04515 12.8817C2.92125 12.5823 2.67629 12.3494 2.37101 12.2408L1.31601 11.8658C0.527268 11.5851 0.000488281 10.8384 0.000488281 10.0012C0.000488281 9.164 0.527268 8.41736 1.31601 8.13662L2.37101 7.76162C2.67634 7.6528 2.9213 7.41975 3.04519 7.1202C3.16907 6.82066 3.16028 6.48266 3.02101 6.18996L2.54101 5.17912C2.18224 4.42275 2.33794 3.52247 2.9299 2.93051C3.52185 2.33856 4.42213 2.18286 5.17851 2.54162L6.18934 3.02246C6.48207 3.16141 6.81994 3.16993 7.1193 3.0459C7.41865 2.92187 7.6515 2.67689 7.76017 2.37162L8.13517 1.31662C8.41632 0.528089 9.16302 0.00158691 10.0002 0.00158691C10.8373 0.00158691 11.584 0.528089 11.8652 1.31662L12.2402 2.37079C12.3487 2.67621 12.5814 2.92138 12.8808 3.04558C13.1802 3.16978 13.5182 3.16138 13.811 3.02246L14.8218 2.54162C15.5782 2.18286 16.4785 2.33856 17.0704 2.93051C17.6624 3.52247 17.8181 4.42275 17.4593 5.17912L16.9793 6.18996C16.8398 6.48263 16.8309 6.82074 16.9548 7.12036C17.0787 7.41998 17.3238 7.65302 17.6293 7.76162ZM6.29934 11.5341C6.94674 13.0055 8.39283 13.9641 10.0002 13.9875C10.5256 13.9983 11.0475 13.9007 11.5335 13.7008C13.575 12.8516 14.5442 10.5103 13.7002 8.46662C12.8321 6.44408 10.5096 5.48269 8.46601 6.29996C6.4245 7.1492 5.45535 9.49044 6.29934 11.5341Z" fill="#895EF7"/>
</svg>
