<?xml version="1.0" encoding="UTF-8"?>
<svg width="22px" height="22px" viewBox="0 0 22 22" version="1.1" xmlns="http://www.w3.org/2000/svg" xmlns:xlink="http://www.w3.org/1999/xlink">
    <!-- Generator: Sketch 55.1 (78136) - https://sketchapp.com -->
    <title>Oval</title>
    <desc>Created with Sketch.</desc>
    <g id="Page-1" stroke="none" stroke-width="1" fill="none" fill-rule="evenodd">
        <g id="Oval" fill="#1D1C39" fill-rule="nonzero">
            <path d="M18.7471375,18.7464625 L15.4842625,18.7464625 L15.4842625,13.6410875 C15.4842625,12.423525 15.4636375,10.8574 13.7888875,10.8574 C12.09145,10.8574 11.8322625,12.184275 11.8322625,13.553775 L11.8322625,18.7464625 L8.572825,18.7464625 L8.572825,8.24765 L11.70095,8.24765 L11.70095,9.68315 L11.7456375,9.68315 C12.180825,8.8574625 13.245075,7.9870875 14.8325125,7.9870875 C18.1366375,7.9870875 18.7471375,10.1609625 18.7471375,12.98865 L18.7471375,18.7464625 Z M4.8940125,6.813525 C3.845575,6.813525 3.0006375,5.9658375 3.0006375,4.9208375 C3.0006375,3.876525 3.845575,3.0288375 4.8940125,3.0288375 C5.9376375,3.0288375 6.785325,3.876525 6.785325,4.9208375 C6.785325,5.9658375 5.9376375,6.813525 4.8940125,6.813525 L4.8940125,6.813525 Z M6.5261375,18.7464625 L3.259825,18.7464625 L3.259825,8.24765 L6.5261375,8.24765 L6.5261375,18.7464625 Z M21.0832625,0.0004 L0.916825,0.0004 C0.4101375,0.0004 -0.0003,0.4108375 -0.0003,0.9168375 L-0.0003,21.083275 C-0.0003,21.5899625 0.4101375,22.0004 0.916825,22.0004 L21.0832625,22.0004 C21.5892625,22.0004 21.9997,21.5899625 21.9997,21.083275 L21.9997,0.9168375 C21.9997,0.4108375 21.5892625,0.0004 21.0832625,0.0004 L21.0832625,0.0004 Z" id="Path"></path>
        </g>
    </g>
</svg>
