<svg width="20" height="20" viewBox="0 0 20 20" fill="none" xmlns="http://www.w3.org/2000/svg">
<path d="M2.5 0.0108643H0.833333C0.373096 0.0108643 0 0.38396 0 0.844198V2.51086C0 2.9711 0.373096 3.3442 0.833333 3.3442C1.29357 3.3442 1.66667 2.9711 1.66667 2.51086V1.88586C1.66667 1.77081 1.75994 1.67753 1.875 1.67753H2.5C2.96024 1.67753 3.33333 1.30444 3.33333 0.844198C3.33333 0.38396 2.96024 0.0108643 2.5 0.0108643Z" fill="#FF61C7"/>
<path d="M15.8333 1.67753H16.4583C16.5734 1.67753 16.6667 1.77081 16.6667 1.88586V2.51086C16.6667 2.9711 17.0398 3.3442 17.5 3.3442C17.9602 3.3442 18.3333 2.9711 18.3333 2.51086V0.844198C18.3333 0.38396 17.9602 0.0108643 17.5 0.0108643H15.8333C15.3731 0.0108643 15 0.38396 15 0.844198C15 1.30444 15.3731 1.67753 15.8333 1.67753Z" fill="#FF61C7"/>
<path d="M7.5 0.0108643H5.83333C5.3731 0.0108643 5 0.38396 5 0.844198C5 1.30443 5.3731 1.67753 5.83333 1.67753H7.5C7.96024 1.67753 8.33333 1.30443 8.33333 0.844198C8.33333 0.38396 7.96024 0.0108643 7.5 0.0108643Z" fill="#FF61C7"/>
<path d="M12.5 1.67753C12.9602 1.67753 13.3333 1.30443 13.3333 0.844198C13.3333 0.38396 12.9602 0.0108643 12.5 0.0108643H10.8333C10.3731 0.0108643 10 0.38396 10 0.844198C10 1.30443 10.3731 1.67753 10.8333 1.67753H12.5Z" fill="#FF61C7"/>
<path d="M2.5 16.6775H1.875C1.75994 16.6775 1.66667 16.5843 1.66667 16.4692V15.8442C1.66667 15.384 1.29357 15.0109 0.833333 15.0109C0.373096 15.0109 0 15.384 0 15.8442V17.5109C0 17.9711 0.373096 18.3442 0.833333 18.3442H2.5C2.96024 18.3442 3.33333 17.9711 3.33333 17.5109C3.33333 17.0506 2.96024 16.6775 2.5 16.6775Z" fill="#FF61C7"/>
<path d="M7.5 16.6775H5.83333C5.3731 16.6775 5 17.0506 5 17.5108C5 17.9711 5.3731 18.3442 5.83333 18.3442H7.5C7.96024 18.3442 8.33333 17.9711 8.33333 17.5108C8.33333 17.0506 7.96024 16.6775 7.5 16.6775Z" fill="#FF61C7"/>
<path d="M0.833333 8.3442C1.29357 8.3442 1.66667 7.9711 1.66667 7.51086V5.8442C1.66667 5.38396 1.29357 5.01086 0.833333 5.01086C0.373096 5.01086 0 5.38396 0 5.8442V7.51086C0 7.9711 0.373096 8.3442 0.833333 8.3442Z" fill="#FF61C7"/>
<path d="M0.833333 13.3442C1.29357 13.3442 1.66667 12.9711 1.66667 12.5109V10.8442C1.66667 10.384 1.29357 10.0109 0.833333 10.0109C0.373096 10.0109 0 10.384 0 10.8442V12.5109C0 12.9711 0.373096 13.3442 0.833333 13.3442Z" fill="#FF61C7"/>
<path d="M17.4998 5.01086C17.0396 5.01086 16.6665 5.38396 16.6665 5.8442V7.51086C16.6665 7.9711 17.0396 8.3442 17.4998 8.3442C17.9601 8.3442 18.3332 7.9711 18.3332 7.51086V5.8442C18.3332 5.38396 17.9601 5.01086 17.4998 5.01086Z" fill="#FF61C7"/>
<path d="M19.5732 13.4101L10.9248 10.1667C10.7002 10.0579 10.4315 10.1005 10.2515 10.2734C10.0809 10.455 10.0395 10.7229 10.1473 10.9476L13.4232 19.5617C13.4834 19.8029 13.6956 19.9754 13.944 19.9851H13.9732C14.0865 19.9776 14.3615 19.9159 14.4648 19.4967L15.4165 15.5901C15.4353 15.515 15.4939 15.4564 15.569 15.4376L19.5123 14.4517C19.929 14.3476 19.9915 14.0709 19.9982 13.9576C20.0038 13.6975 19.8265 13.4691 19.5732 13.4101Z" fill="#FF61C7"/>
</svg>
