<svg width="20" height="20" viewBox="0 0 20 20" fill="none" xmlns="http://www.w3.org/2000/svg">
<path d="M12.8967 12.6192C12.448 13.1677 11.7896 13.5026 11.0821 13.5422C10.3746 13.5819 9.68291 13.3225 9.17583 12.8275L6.1475 9.7975C5.19984 8.81678 5.21302 7.25751 6.17712 6.29294C7.14123 5.32838 8.7005 5.31447 9.68167 6.26167L10.7333 7.31333L13.7058 3.5875C13.2065 3.24818 12.6598 2.9845 12.0833 2.805V1.25C12.0833 0.918479 11.9516 0.600537 11.7172 0.366117C11.4828 0.131696 11.1649 0 10.8333 0H9.16667C8.47631 0 7.91667 0.559644 7.91667 1.25V2.8025C7.38409 2.95692 6.87037 3.17018 6.385 3.43833L5.28417 2.34083C4.79604 1.85286 4.00479 1.85286 3.51667 2.34083L2.33833 3.51917C2.10374 3.75361 1.97193 4.07167 1.97193 4.40333C1.97193 4.73499 2.10374 5.05306 2.33833 5.2875L3.43583 6.385C3.16785 6.87045 2.95459 7.38415 2.8 7.91667H1.25C0.918479 7.91667 0.600537 8.04836 0.366117 8.28278C0.131696 8.5172 0 8.83515 0 9.16667V10.8333C0 11.5237 0.559644 12.0833 1.25 12.0833H2.8C2.95454 12.6161 3.16779 13.1301 3.43583 13.6158L2.33833 14.715C1.85036 15.2031 1.85036 15.9944 2.33833 16.4825L3.51667 17.6608C4.01245 18.1299 4.78838 18.1299 5.28417 17.6608L6.38083 16.5633C6.86681 16.8316 7.38107 17.0452 7.91417 17.2V18.75C7.91417 19.082 8.04621 19.4003 8.28117 19.6348C8.51613 19.8693 8.83471 20.0007 9.16667 20H10.8333C11.5237 20 12.0833 19.4404 12.0833 18.75V17.2C12.6159 17.0456 13.1296 16.8323 13.615 16.5642L14.7133 17.6617C15.2015 18.1496 15.9927 18.1496 16.4808 17.6617L17.6583 16.4833C18.1463 15.9952 18.1463 15.204 17.6583 14.7158L16.5583 13.6175C16.8259 13.1313 17.0391 12.6171 17.1942 12.0842H18.7442C19.4345 12.0842 19.9942 11.5245 19.9942 10.8342V9.16667C19.9942 8.47631 19.4345 7.91667 18.7442 7.91667H17.1908C17.1425 7.75833 17.0858 7.60083 17.0242 7.445L12.8967 12.6192Z" fill="#FF7641"/>
<path d="M19.5293 0.277494C18.9894 -0.152094 18.2035 -0.062949 17.7735 0.47666L10.8376 9.18583L8.79763 7.14583C8.4813 6.83024 8.02064 6.70739 7.58917 6.82355C7.1577 6.9397 6.82098 7.27722 6.70584 7.70896C6.5907 8.1407 6.71464 8.60108 7.03097 8.91666L10.0601 11.9467C10.3156 12.1902 10.6605 12.317 11.0129 12.2971C11.3653 12.2772 11.6937 12.1124 11.9201 11.8417L19.7276 2.03416C19.9343 1.77492 20.0295 1.44419 19.9923 1.11475C19.9551 0.785306 19.7886 0.484135 19.5293 0.277494Z" fill="#FF7641"/>
</svg>
