<svg width="20" height="20" viewBox="0 0 20 20" fill="none" xmlns="http://www.w3.org/2000/svg">
<path d="M12.8516 5.31C12.7031 5.47075 12.4556 5.48931 12.2849 5.3525L9.90573 3.44833C9.07694 2.78535 7.88223 2.85138 7.13156 3.60167L1.40823 9.32417C0.919914 9.81248 0.919914 10.6042 1.40823 11.0925C1.89654 11.5808 2.68825 11.5808 3.17656 11.0925L8.37156 5.89667C8.52189 5.74671 8.76094 5.73379 8.92656 5.86667L11.3341 7.79C12.1867 8.45866 13.408 8.36916 14.1541 7.58333L17.0324 4.47167C17.0709 4.42998 17.1248 4.40589 17.1816 4.405C17.2381 4.40361 17.2927 4.42563 17.3324 4.46583L18.5174 5.65C18.6343 5.76756 18.7933 5.83356 18.9591 5.83333C19.3042 5.83333 19.5841 5.55351 19.5841 5.20833V0.625C19.5841 0.279822 19.3042 0 18.9591 0H14.3757C14.1231 0.000222195 13.8955 0.152496 13.7988 0.385897C13.7022 0.619298 13.7555 0.887928 13.9341 1.06667L15.2674 2.4C15.3464 2.4793 15.349 2.60675 15.2732 2.68917L12.8516 5.31Z" fill="#895EF7"/>
<path d="M17.5013 17.5H11.668C10.9776 17.5 10.418 18.0596 10.418 18.75C10.418 19.4404 10.9776 20 11.668 20H17.5013C18.1917 20 18.7513 19.4404 18.7513 18.75C18.7513 18.0596 18.1917 17.5 17.5013 17.5Z" fill="#895EF7"/>
<path d="M2.5 20H8.33333C9.02369 20 9.58333 19.4404 9.58333 18.75C9.58333 18.0596 9.02369 17.5 8.33333 17.5H2.5C1.80964 17.5 1.25 18.0596 1.25 18.75C1.25 19.4404 1.80964 20 2.5 20Z" fill="#895EF7"/>
<path d="M7.50033 16.25C8.19068 16.25 8.75033 15.6904 8.75033 15C8.75033 14.3096 8.19068 13.75 7.50033 13.75H1.66699C0.976636 13.75 0.416992 14.3096 0.416992 15C0.416992 15.6904 0.976636 16.25 1.66699 16.25H7.50033Z" fill="#895EF7"/>
<path d="M19.5833 15C19.5833 14.3096 19.0237 13.75 18.3333 13.75H12.5C11.8096 13.75 11.25 14.3096 11.25 15C11.25 15.6904 11.8096 16.25 12.5 16.25H18.3333C19.0237 16.25 19.5833 15.6904 19.5833 15Z" fill="#895EF7"/>
<path d="M11.668 12.5H17.5013C18.1917 12.5 18.7513 11.9404 18.7513 11.25C18.7513 10.5596 18.1917 10 17.5013 10H11.668C10.9776 10 10.418 10.5596 10.418 11.25C10.418 11.9404 10.9776 12.5 11.668 12.5Z" fill="#895EF7"/>
</svg>
