<svg width="20" height="20" viewBox="0 0 20 20" fill="none" xmlns="http://www.w3.org/2000/svg">
<path d="M2.08333 5.41496C3.23393 5.41496 4.16667 4.48222 4.16667 3.33162C4.16667 2.18103 3.23393 1.24829 2.08333 1.24829C0.93274 1.24829 0 2.18103 0 3.33162C0 4.48222 0.93274 5.41496 2.08333 5.41496Z" fill="#FF61C7"/>
<path d="M7.08333 4.16667H19.1667C19.6269 4.16667 20 3.79357 20 3.33333C20 2.8731 19.6269 2.5 19.1667 2.5H7.08333C6.6231 2.5 6.25 2.8731 6.25 3.33333C6.25 3.79357 6.6231 4.16667 7.08333 4.16667Z" fill="#FF61C7"/>
<path d="M2.08333 12.0816C3.23393 12.0816 4.16667 11.1488 4.16667 9.99825C4.16667 8.84766 3.23393 7.91492 2.08333 7.91492C0.93274 7.91492 0 8.84766 0 9.99825C0 11.1488 0.93274 12.0816 2.08333 12.0816Z" fill="#FF61C7"/>
<path d="M19.1667 9.16663H7.08333C6.6231 9.16663 6.25 9.53972 6.25 9.99996C6.25 10.4602 6.6231 10.8333 7.08333 10.8333H19.1667C19.6269 10.8333 20 10.4602 20 9.99996C20 9.53972 19.6269 9.16663 19.1667 9.16663Z" fill="#FF61C7"/>
<path d="M2.08333 18.7483C3.23393 18.7483 4.16667 17.8156 4.16667 16.665C4.16667 15.5144 3.23393 14.5817 2.08333 14.5817C0.93274 14.5817 0 15.5144 0 16.665C0 17.8156 0.93274 18.7483 2.08333 18.7483Z" fill="#FF61C7"/>
<path d="M19.1667 15.8333H7.08333C6.6231 15.8333 6.25 16.2063 6.25 16.6666C6.25 17.1268 6.6231 17.4999 7.08333 17.4999H19.1667C19.6269 17.4999 20 17.1268 20 16.6666C20 16.2063 19.6269 15.8333 19.1667 15.8333Z" fill="#FF61C7"/>
</svg>
