<svg width="20" height="20" viewBox="0 0 20 20" fill="none" xmlns="http://www.w3.org/2000/svg">
<path fill-rule="evenodd" clip-rule="evenodd" d="M15.6248 2.5H17.9165C18.837 2.5 19.5832 3.24619 19.5832 4.16667V18.3333C19.5832 19.2538 18.837 20 17.9165 20H2.08317C1.1627 20 0.416504 19.2538 0.416504 18.3333V4.16667C0.416504 3.24619 1.1627 2.5 2.08317 2.5H3.33317C3.56329 2.5 3.74984 2.68655 3.74984 2.91667V4.79167C3.74984 5.13684 4.02966 5.41667 4.37484 5.41667C4.72002 5.41667 4.99984 5.13684 4.99984 4.79167V0.833333C4.99984 0.373096 5.37293 0 5.83317 0C6.29341 0 6.6665 0.373096 6.6665 0.833333V2.2925C6.66696 2.40723 6.7601 2.5 6.87484 2.5H12.0832C12.3133 2.5 12.4998 2.68655 12.4998 2.91667V4.79167C12.4998 5.13684 12.7797 5.41667 13.1248 5.41667C13.47 5.41667 13.7498 5.13684 13.7498 4.79167V0.833333C13.7498 0.373096 14.1229 0 14.5832 0C15.0434 0 15.4165 0.373096 15.4165 0.833333V2.29167C15.4165 2.40673 15.5098 2.5 15.6248 2.5ZM2.49984 18.3333H17.4998C17.73 18.3333 17.9165 18.1468 17.9165 17.9167V7.91667C17.9165 7.68655 17.73 7.5 17.4998 7.5H2.49984C2.26972 7.5 2.08317 7.68655 2.08317 7.91667V17.9167C2.08317 18.1468 2.26972 18.3333 2.49984 18.3333Z" fill="#4461D7"/>
</svg>
