<svg width="20" height="20" viewBox="0 0 20 20" fill="none" xmlns="http://www.w3.org/2000/svg">
<path fill-rule="evenodd" clip-rule="evenodd" d="M10.0158 12.9167C10.4761 12.9167 10.8492 13.2898 10.8492 13.75C10.8478 14.2093 10.4751 14.5808 10.0158 14.5808H7.49001C7.41692 14.5808 7.34918 14.6191 7.31148 14.6817C7.27378 14.7443 7.27164 14.8221 7.30584 14.8867C7.94406 15.9834 8.65161 17.0383 9.42417 18.045C9.52047 18.1892 9.66166 18.2976 9.82584 18.3533C10.2271 18.4656 10.4837 18.857 10.4268 19.2698C10.3698 19.6826 10.0167 19.9898 9.60001 19.9892H9.56334C4.14811 19.7615 -0.0949862 15.2524 0.00667186 9.83333C0.198322 4.43917 4.5598 0.12847 9.95584 1.75467e-07C14.101 -0.0354353 17.8341 2.50238 19.3258 6.37C19.4449 6.61911 19.4234 6.91261 19.2693 7.14171C19.1152 7.37081 18.8515 7.50137 18.5758 7.485C18.106 7.50185 16.6498 7.50156 11.7641 7.5006H11.7641H11.764H11.764H11.764C10.3673 7.50033 8.69023 7.5 6.67584 7.5C6.5756 7.49897 6.4885 7.56865 6.46751 7.66667C6.32525 8.43627 6.2544 9.21736 6.25584 10C6.25133 10.9276 6.35056 11.8528 6.55167 12.7583C6.57387 12.852 6.65796 12.9177 6.75417 12.9167H10.0158ZM4.79095 12.8404C4.8306 12.7919 4.84618 12.728 4.83334 12.6667C4.66858 11.7874 4.58683 10.8946 4.58917 10C4.58731 9.24353 4.64303 8.48801 4.75584 7.74C4.7645 7.68004 4.74684 7.61926 4.7074 7.57328C4.66796 7.52729 4.61058 7.50058 4.55001 7.5H2.21084C2.11834 7.50028 2.037 7.56128 2.01084 7.65C1.5158 9.33124 1.56509 11.126 2.15167 12.7775C2.18125 12.8608 2.25997 12.9165 2.34834 12.9167H4.62917C4.69185 12.917 4.75131 12.889 4.79095 12.8404ZM9.88251 1.89167C9.95509 1.84003 10.0524 1.84003 10.125 1.89167C11.3774 2.82756 12.3465 4.09168 12.925 5.54417C12.9521 5.60857 12.9451 5.68228 12.9064 5.74045C12.8677 5.79862 12.8024 5.8335 12.7325 5.83333H7.27417C7.20475 5.83356 7.13989 5.79878 7.10167 5.74083C7.0629 5.68253 7.05601 5.60864 7.08334 5.54417C7.65759 4.08949 8.62715 2.82436 9.88251 1.89167ZM17.0413 5.72493C17.078 5.65777 17.075 5.57589 17.0333 5.51167C16.1851 4.17551 14.9704 3.11155 13.5342 2.44667C13.4484 2.40666 13.3464 2.42954 13.2859 2.50237C13.2254 2.5752 13.2216 2.67966 13.2767 2.75667C13.9149 3.65464 14.4139 4.64385 14.7567 5.69083C14.7853 5.776 14.8651 5.83337 14.955 5.83333H16.8575C16.934 5.83371 17.0046 5.79209 17.0413 5.72493ZM6.45001 2.47333C6.53575 2.43246 6.63829 2.45476 6.69932 2.52755C6.76034 2.60035 6.76439 2.70521 6.70917 2.7825C6.08205 3.67348 5.59163 4.65319 5.25417 5.68917C5.22643 5.77487 5.14675 5.83303 5.05667 5.83333H3.17084C3.09472 5.83321 3.02474 5.79158 2.98829 5.72476C2.95184 5.65794 2.95474 5.57656 2.99584 5.5125C3.8412 4.19708 5.03767 3.14436 6.45001 2.47333ZM6.7333 17.5043C6.79379 17.4315 6.79757 17.327 6.7425 17.25C6.18612 16.4688 5.73476 15.6179 5.4 14.7192C5.36954 14.6378 5.29191 14.5837 5.20501 14.5833H3.43501C3.35609 14.5833 3.28396 14.6279 3.24867 14.6985C3.21338 14.7691 3.22099 14.8535 3.26834 14.9167C4.09905 16.0563 5.20597 16.9659 6.485 17.56C6.57081 17.6 6.67281 17.5771 6.7333 17.5043Z" fill="#FF7641"/>
<path d="M15.6407 14.75C16.7912 14.7503 17.8286 14.0575 18.269 12.9946C18.7095 11.9318 18.4662 10.7082 17.6527 9.8947C16.8391 9.08117 15.6156 8.83789 14.5527 9.27833C13.4899 9.71876 12.797 10.7562 12.7974 11.9067C12.7974 12.6608 13.0969 13.384 13.6302 13.9172C14.1634 14.4504 14.8866 14.75 15.6407 14.75Z" fill="#FF7641"/>
<path d="M11.2899 19.5375C11.2774 19.6554 11.3157 19.7731 11.3952 19.8611C11.4747 19.9491 11.588 19.999 11.7066 19.9983H19.5791C19.6977 19.999 19.811 19.9491 19.8905 19.8611C19.9701 19.7731 20.0084 19.6554 19.9958 19.5375C19.7608 17.3114 17.8834 15.6217 15.6449 15.6217C13.4065 15.6217 11.5291 17.3114 11.2941 19.5375H11.2899Z" fill="#FF7641"/>
</svg>
