<svg width="20" height="20" viewBox="0 0 20 20" fill="none" xmlns="http://www.w3.org/2000/svg">
<path d="M0.208008 1.91662C0.208008 1.0882 0.879581 0.416626 1.70801 0.416626H3.70801C4.53643 0.416626 5.20801 1.0882 5.20801 1.91663V18.0833C5.20801 18.9117 4.53643 19.5833 3.70801 19.5833H1.70801C0.879581 19.5833 0.208008 18.9117 0.208008 18.0833V1.91662Z" fill="#FF61C7"/>
<path d="M6.45801 7.75C6.45801 6.92157 7.12958 6.25 7.95801 6.25H9.95801C10.7864 6.25 11.458 6.92157 11.458 7.75V18.0833C11.458 18.9118 10.7864 19.5833 9.95801 19.5833H7.95801C7.12958 19.5833 6.45801 18.9118 6.45801 18.0833V7.75Z" fill="#FF61C7"/>
<path d="M19.7734 17.5783L17.1942 2.37918C17.1388 2.0516 16.9553 1.75956 16.6841 1.56755C16.413 1.37554 16.0766 1.29937 15.7492 1.35585L13.2842 1.77251C12.6039 1.88799 12.1458 2.53293 12.2609 3.21335L14.8434 18.4167C14.8988 18.7436 15.0819 19.0351 15.3522 19.227C15.6226 19.4189 15.9581 19.4955 16.285 19.44L18.7492 19.0233C19.0762 18.9681 19.3679 18.7851 19.56 18.5147C19.7521 18.2443 19.8289 17.9087 19.7734 17.5817V17.5783Z" fill="#FF61C7"/>
</svg>
