<svg width="20" height="20" viewBox="0 0 20 20" fill="none" xmlns="http://www.w3.org/2000/svg">
<path d="M17.2643 11.1024C17.27 11.0431 17.248 10.9845 17.2043 10.9424L16.6477 10.408C16.588 10.3506 16.4981 10.3336 16.4202 10.3648C15.1267 10.8846 13.6819 10.9413 12.3485 10.5248C12.2463 10.4919 12.1349 10.5399 12.0927 10.6352C11.8829 11.1036 11.6119 11.5445 11.286 11.9472C11.2468 11.9969 11.2336 12.0612 11.2502 12.1216C11.3055 12.3177 11.3757 12.5097 11.4602 12.696C11.4848 12.7453 11.5293 12.7829 11.5835 12.8C13.6127 13.52 16.2543 14.7128 16.2543 18.4V19.6C16.2544 19.6593 16.251 19.7186 16.2443 19.7776C16.238 19.8342 16.2569 19.8907 16.2965 19.9331C16.3361 19.9756 16.3925 19.9998 16.4518 20H19.5835C19.8136 20 20.0002 19.8209 20.0002 19.6V18.9176C20.0002 16.4376 18.1993 15.8208 16.6102 15.2776L16.2018 15.136C16.1495 15.1179 16.1068 15.0805 16.0835 15.032C16.0589 14.9807 16.0399 14.9271 16.0268 14.872C15.9576 14.5441 15.967 14.2054 16.0543 13.8816C16.0634 13.8549 16.0782 13.8304 16.0977 13.8096C16.8162 13.0732 17.2309 12.1109 17.2643 11.1024Z" fill="#FF7641"/>
<path d="M8.33333 5.19999C8.33273 4.64085 8.41953 4.08479 8.59083 3.55039C8.60778 3.49696 8.60079 3.43918 8.57154 3.39091C8.54229 3.34264 8.49342 3.30825 8.43667 3.29599C8.12895 3.2317 7.81491 3.19952 7.5 3.19999C6.39678 3.1699 5.33273 3.59372 4.57575 4.36475C3.81877 5.13577 3.44098 6.18053 3.5375 7.23599C3.5375 9.78399 4.30167 10.8168 5.08417 11.6456C5.09726 11.6598 5.1082 11.6757 5.11667 11.6928C5.28177 12.1887 5.29908 12.7191 5.16667 13.224C5.10333 13.4288 5.02083 13.5224 4.965 13.544C4.75417 13.6184 4.54167 13.6904 4.32917 13.7632C2.30167 14.4512 0 15.2336 0 18.4V19.6C0 19.8209 0.186548 20 0.416667 20H14.5833C14.8135 20 15 19.8209 15 19.6V18.4C15 15.2416 12.6892 14.452 10.65 13.7552L10.0342 13.5424C9.97833 13.5224 9.89583 13.4288 9.8325 13.2224C9.7021 12.7196 9.71824 12.1921 9.87917 11.6976C9.888 11.6798 9.89951 11.6634 9.91333 11.6488C10.3671 11.1944 10.7298 10.6637 10.9833 10.0832C11.0204 9.99586 10.9884 9.89552 10.9067 9.84319C9.29806 8.80248 8.33357 7.0622 8.33333 5.19999Z" fill="#FF7641"/>
<path fill-rule="evenodd" clip-rule="evenodd" d="M16.8832 8.93917C16.8141 8.87292 16.7064 8.86161 16.624 8.91197C14.6495 10.1176 12.0462 9.70355 10.5822 7.95102C9.11813 6.1985 9.26247 3.66908 10.9172 2.08057C12.5719 0.492067 15.2067 0.353499 17.0322 1.75897C18.8578 3.16445 19.2891 5.6636 18.0332 7.55917C17.9807 7.63823 17.9925 7.74165 18.0615 7.80797L19.7557 9.43357C19.9663 9.63564 20.0487 9.93023 19.9717 10.2064C19.8947 10.4825 19.6702 10.6983 19.3825 10.7724C19.0949 10.8465 18.788 10.7676 18.5774 10.5656L16.8832 8.93917ZM14.1665 2.39997C12.5557 2.39997 11.2499 3.65357 11.2499 5.19997C11.2499 6.74636 12.5557 7.99997 14.1665 7.99997C15.7774 7.99997 17.0832 6.74636 17.0832 5.19997C17.0832 3.65357 15.7774 2.39997 14.1665 2.39997Z" fill="#FF7641"/>
</svg>
