<svg width="20" height="20" viewBox="0 0 20 20" fill="none" xmlns="http://www.w3.org/2000/svg">
<path fill-rule="evenodd" clip-rule="evenodd" d="M2.91667 0H17.0833C18.6942 0 20 1.30584 20 2.91667V13.75C20 15.3608 18.6942 16.6667 17.0833 16.6667H5.755C5.71099 16.6669 5.66816 16.6809 5.6325 16.7067L1.32333 19.8408C1.06982 20.0251 0.734329 20.0516 0.455055 19.9093C0.175781 19.767 -4.3575e-05 19.4801 8.10061e-09 19.1667V2.91667C8.10061e-09 1.30584 1.30584 0 2.91667 0ZM17.0833 15C17.7737 15 18.3333 14.4404 18.3333 13.75V2.91667C18.3333 2.22631 17.7737 1.66667 17.0833 1.66667H2.91667C2.22631 1.66667 1.66667 2.22631 1.66667 2.91667V17.1208C1.66734 17.1998 1.71247 17.2717 1.78333 17.3067C1.853 17.3426 1.937 17.3358 2 17.2892L4.92667 15.1592C5.06909 15.0557 5.24062 15 5.41667 15H17.0833Z" fill="#1D1C39"/>
<path d="M10 14.1667C10.6904 14.1667 11.25 13.607 11.25 12.9167C11.25 12.2263 10.6904 11.6667 10 11.6667C9.30964 11.6667 8.75 12.2263 8.75 12.9167C8.75 13.607 9.30964 14.1667 10 14.1667Z" fill="#1D1C39"/>
<path d="M10.0003 2.71167C8.15938 2.71167 6.66699 4.20405 6.66699 6.045C6.66699 6.50524 7.04009 6.87834 7.50033 6.87834C7.96056 6.87834 8.33366 6.50524 8.33366 6.045C8.33365 5.21259 8.94781 4.5078 9.7724 4.39397C10.597 4.28013 11.3791 4.79216 11.6047 5.59344C11.8302 6.39472 11.4299 7.23954 10.667 7.5725C9.7558 7.97018 9.16684 8.86998 9.16699 9.86417C9.16699 10.3244 9.54009 10.6975 10.0003 10.6975C10.4606 10.6975 10.8337 10.3244 10.8337 9.86417C10.8335 9.53267 11.0298 9.2326 11.3337 9.1C12.7803 8.46858 13.5857 6.90909 13.2632 5.36397C12.9407 3.81884 11.5787 2.71172 10.0003 2.71167Z" fill="#1D1C39"/>
</svg>
