<svg width="20" height="20" viewBox="0 0 20 20" fill="none" xmlns="http://www.w3.org/2000/svg">
<rect width="20" height="20" fill="white"/>
<path d="M19.5831 6.7532L10.2477 3.04706C10.0897 2.98431 9.91366 2.98431 9.75562 3.04706L0.420239 6.7532C0.161784 6.85607 -0.00566218 7.10856 0.000146447 7.38668V12.5878C0.000146447 13.1402 0.44796 13.588 1.00037 13.588C1.55277 13.588 2.00059 13.1402 2.00059 12.5878V9.4938C2.00086 9.27765 2.1059 9.07504 2.28238 8.95023C2.45886 8.82542 2.68489 8.7939 2.88878 8.86567L9.77562 11.2969C9.84647 11.323 9.92148 11.3362 9.99701 11.3355C10.0725 11.3359 10.1475 11.3228 10.2184 11.2969L19.5538 8.00281C19.8166 7.91067 19.9945 7.66484 19.9999 7.38635C20.0052 7.10785 19.8369 6.85537 19.5778 6.7532H19.5831Z" fill="#1D1C39"/>
<path d="M15.1111 10.9848L10.2193 12.7185C10.0756 12.7693 9.9189 12.7693 9.77522 12.7185L4.89015 10.9848C4.68603 10.913 4.45975 10.9446 4.2832 11.0697C4.10665 11.1949 4.0018 11.3979 4.00195 11.6143V14.9483C4.00231 15.2309 4.1808 15.4826 4.44738 15.5765L8.44826 16.9901C9.45337 17.3439 10.5492 17.3439 11.5543 16.9901L15.5552 15.5765C15.8217 15.4826 16.0002 15.2309 16.0006 14.9483V11.6143C16.0007 11.3979 15.8959 11.1949 15.7193 11.0697C15.5428 10.9446 15.3165 10.913 15.1124 10.9848H15.1111Z" fill="#1D1C39"/>
</svg>
