<?xml version="1.0" encoding="UTF-8"?>
<svg width="27px" height="22px" viewBox="0 0 27 22" version="1.1" xmlns="http://www.w3.org/2000/svg" xmlns:xlink="http://www.w3.org/1999/xlink">
    <!-- Generator: Sketch 55.1 (78136) - https://sketchapp.com -->
    <title>Oval</title>
    <desc>Created with Sketch.</desc>
    <g id="Page-1" stroke="none" stroke-width="1" fill="none" fill-rule="evenodd">
        <g id="Oval" transform="translate(0.000000, -1.000000)" fill="#1D1C39" fill-rule="nonzero">
            <path d="M27.071717,3.60156078 C26.0759854,4.04316816 25.0049606,4.34180304 23.8814843,4.47631563 C25.0286483,3.78852482 25.9093251,2.7005802 26.3238608,1.40367576 C25.251144,2.0398611 24.0616804,2.50177227 22.7969237,2.75133967 C21.7834263,1.67185495 20.3401654,0.9976 18.7429341,0.9976 C15.6753701,0.9976 13.1890021,3.48396801 13.1890021,6.55153194 C13.1890021,6.98637139 13.2380696,7.41021296 13.3328206,7.8171347 C8.71624688,7.58533313 4.62418766,5.37391225 1.88486829,2.01363538 C1.40688329,2.8342468 1.13278216,3.78852482 1.13278216,4.80625218 C1.13278216,6.73257404 2.11328591,8.43301627 3.60307633,9.42874786 C2.69278985,9.39998416 1.8366468,9.15041677 1.08794463,8.73418912 C1.08709863,8.75787687 1.08709863,8.78071863 1.08709863,8.80440638 C1.08709863,11.4955042 3.00157662,13.7399188 5.54293405,14.2500515 C5.07679292,14.3769501 4.58611805,14.4446294 4.07936935,14.4446294 C3.72151509,14.4446294 3.37381273,14.4099438 3.03457027,14.3456485 C3.74097289,16.5519934 5.79250144,18.1576846 8.22303403,18.2025221 C6.32209191,19.6923126 3.92709094,20.5797573 1.32482215,20.5797573 C0.876446837,20.5797573 0.434839454,20.5535316 0,20.5027721 C2.45760431,22.0780076 5.37711978,22.9976 8.51405499,22.9976 C18.7302442,22.9976 24.3163238,14.5343045 24.3163238,7.19533121 C24.3163238,6.95422373 24.3112478,6.71480823 24.30025,6.47623872 C25.3856566,5.6936969 26.3272448,4.71573113 27.071717,3.60156078" id="Path"></path>
        </g>
    </g>
</svg>
