<svg width="20" height="20" viewBox="0 0 20 20" fill="none" xmlns="http://www.w3.org/2000/svg">
<path fill-rule="evenodd" clip-rule="evenodd" d="M3.22417 0H16.7758C18.5561 0.00183806 19.9986 1.44478 20 3.225V16.775C19.9986 18.5552 18.5561 19.9982 16.7758 20H3.22417C1.44395 19.9982 0.001378 18.5552 0 16.775V3.225C0.001378 1.44478 1.44395 0.00183806 3.22417 0ZM16.7758 18.3333C17.6358 18.332 18.3324 17.6349 18.3333 16.775V3.225C18.3324 2.36506 17.6358 1.66804 16.7758 1.66667H3.22417C2.36423 1.66804 1.66758 2.36506 1.66667 3.225V16.775C1.66758 17.6349 2.36423 18.332 3.22417 18.3333H16.7758Z" fill="#895EF7"/>
<path d="M14.3662 7.36496C14.2321 7.29235 14.0691 7.29874 13.9412 7.38163L12.4053 8.37663C12.3412 8.41818 12.2595 8.42133 12.1924 8.38482C12.1253 8.34831 12.0836 8.27801 12.0837 8.20163V7.08329C12.0837 6.85317 11.8971 6.66663 11.667 6.66663H5.83366C5.60354 6.66663 5.41699 6.85317 5.41699 7.08329V12.9166C5.41699 13.1467 5.60354 13.3333 5.83366 13.3333H11.667C11.8971 13.3333 12.0837 13.1467 12.0837 12.9166V11.7983C12.0836 11.7219 12.1253 11.6516 12.1924 11.6151C12.2595 11.5786 12.3412 11.5817 12.4053 11.6233L13.9412 12.6183C14.0693 12.7009 14.2324 12.707 14.3663 12.634C14.5002 12.5611 14.5836 12.4208 14.5837 12.2683V7.73163C14.5839 7.57876 14.5004 7.43803 14.3662 7.36496Z" fill="#895EF7"/>
</svg>
