<?xml version="1.0" encoding="UTF-8"?>
<svg width="32px" height="23px" viewBox="0 0 32 23" version="1.1" xmlns="http://www.w3.org/2000/svg" xmlns:xlink="http://www.w3.org/1999/xlink">
    <!-- Generator: Sketch 55.1 (78136) - https://sketchapp.com -->
    <title>Oval</title>
    <desc>Created with Sketch.</desc>
    <g id="Page-1" stroke="none" stroke-width="1" fill="none" fill-rule="evenodd">
        <g id="Oval" fill="#1D1C39" fill-rule="nonzero">
            <path d="M12.4104058,15.8038045 L12.4094283,7.01533868 L20.8606657,11.4247224 L12.4104058,15.8038045 Z M30.966766,5.49243469 C30.966766,5.49243469 30.6608168,3.33710524 29.7234195,2.3879783 C28.533834,1.14169936 27.20056,1.13583452 26.5896389,1.06350147 C22.2125118,0.7468 15.6468211,0.7468 15.6468211,0.7468 L15.6331365,0.7468 C15.6331365,0.7468 9.06744581,0.7468 4.69031869,1.06350147 C4.07842017,1.13583452 2.74612355,1.14169936 1.55556062,2.3879783 C0.618163363,3.33710524 0.313191576,5.49243469 0.313191576,5.49243469 C0.313191576,5.49243469 0.0004,8.02409151 0.0004,10.5547709 L0.0004,12.9280769 C0.0004,15.4597338 0.313191576,17.9904131 0.313191576,17.9904131 C0.313191576,17.9904131 0.618163363,20.1457426 1.55556062,21.0948695 C2.74612355,22.3411484 4.30910396,22.3020495 5.00506522,22.4320535 C7.50739782,22.672512 15.6399788,22.7468 15.6399788,22.7468 C15.6399788,22.7468 22.2125118,22.7370253 26.5896389,22.4203238 C27.20056,22.3470133 28.533834,22.3411484 29.7234195,21.0948695 C30.6608168,20.1457426 30.966766,17.9904131 30.966766,17.9904131 C30.966766,17.9904131 31.2795576,15.4597338 31.2795576,12.9280769 L31.2795576,10.5547709 C31.2795576,8.02409151 30.966766,5.49243469 30.966766,5.49243469 L30.966766,5.49243469 Z" id="Path"></path>
        </g>
    </g>
</svg>
